<?xml version="1.0" encoding="utf-8"?>
<!-- Generator: Adobe Adobe Illustrator 24.2.0, SVG Export Plug-In . SVG Version: 6.00 Build 0)  -->
<svg version="1.1" xmlns="http://www.w3.org/2000/svg" xmlns:xlink="http://www.w3.org/1999/xlink" x="0px" y="0px" width="792px"
	 height="612px" viewBox="0 0 792 612" style="enable-background:new 0 0 792 612;" xml:space="preserve">
<style type="text/css">
	.st0{fill:#C2C2C1;stroke:#000000;stroke-width:2;stroke-linecap:round;stroke-linejoin:round;stroke-miterlimit:10;}
	.st1{fill:#EE8545;stroke:#EE8545;stroke-width:2;stroke-linecap:round;stroke-linejoin:round;stroke-miterlimit:10;}
	.st2{fill:#4B93C7;stroke:#EE8545;stroke-width:2;stroke-linecap:round;stroke-linejoin:round;stroke-miterlimit:10;}
	.st3{fill:#100E0E;stroke:#EE8545;stroke-width:2;stroke-linecap:round;stroke-linejoin:round;stroke-miterlimit:10;}
	.st4{fill:#4B93C6;stroke:#EE8545;stroke-width:2;stroke-linecap:round;stroke-linejoin:round;stroke-miterlimit:10;}
	.st5{fill:#110E0E;stroke:#EE8545;stroke-width:2;stroke-linecap:round;stroke-linejoin:round;stroke-miterlimit:10;}
	.st6{fill:#110E0E;}
	.st7{fill:#4B93C7;}
	.st8{fill:#EE8545;}
	.st9{fill:#C2C2C1;}
</style>
<g id="Frame">
	<g>
		<g>
			<path class="st0" d="M117.41,131.61v348.77h557.18V131.61H117.41z M646.29,453.97H143.25V158.06h503.05V453.97z"/>
		</g>
	</g>
</g>
<g id="Letters">
	<g>
		<path class="st1" d="M592.1,416.68c4.73,4.43,9.38,8.7,13.89,13.12c1.01,0.99,1.77,2.42,2.2,3.78c0.45,1.46,0.43,3.09,0.51,4.64
			c0.13,2.65-1.14,4.62-3.33,5.92c-2.92,1.73-6.09,2.74-9.52,2.83c-6.07,0.17-12.1-0.26-17.94-1.94c-3.76-1.09-7.45-2.53-11.03-4.12
			c-1.42-0.63-2.52-2.04-3.68-3.19c-2.69-2.66-5.3-5.39-7.98-8.05c-4.01-3.98-8.06-7.91-12.08-11.87
			c-4.92-4.86-9.83-9.73-14.74-14.6c-3.69-3.66-7.35-7.34-11.07-10.97c-4.25-4.15-8.54-8.26-12.84-12.36
			c-1.25-1.2-1.88-2.73-2.14-4.33c-0.25-1.6-0.38-3.34-0.04-4.9c1.39-6.31,4.59-11.41,10.52-14.45c1.25-0.64,2.52-1.26,3.81-1.81
			c3.21-1.37,6.23-0.42,9.31,0.68c3.09,1.1,5.05,3.53,7.31,5.62c4.14,3.84,8.21,7.75,12.3,11.64c2.85,2.71,5.67,5.46,8.52,8.17
			c3.87,3.67,7.79,7.3,11.65,10.98c4.78,4.57,9.51,9.19,14.29,13.77C583.99,409.04,587.99,412.8,592.1,416.68z"/>
		<path class="st2" d="M423.75,367.73c6.17-6.04,12.19-12.01,18.22-17.96c7.03-6.92,14.06-13.83,21.1-20.74
			c5.4-5.3,10.84-10.58,16.23-15.9c7.83-7.74,15.63-15.51,23.46-23.25c3.44-3.4,6.96-6.73,10.4-10.13
			c5.34-5.27,10.62-10.6,15.97-15.87c4.76-4.69,9.56-9.34,14.35-14.01c6.01-5.85,12.05-11.67,18.01-17.57
			c2.68-2.66,5.15-5.53,7.84-8.19c0.98-0.97,2.27-1.66,3.49-2.36c2.3-1.32,4.37-3.19,7.17-3.42c1.93-0.16,3.88-0.25,5.8-0.13
			c5.74,0.35,10.9,2.24,15.19,6.19c0.27,0.25,0.57,0.49,0.79,0.79c2.76,3.73,2.86,2.71-0.02,5.65c-4.78,4.88-9.52,9.79-14.33,14.64
			c-6.73,6.8-13.52,13.55-20.26,20.35c-3.81,3.85-7.55,7.78-11.36,11.63c-4.74,4.79-9.55,9.53-14.3,14.32
			c-5.86,5.92-11.69,11.87-17.55,17.79c-3.97,4.01-7.98,7.98-11.94,12c-4.74,4.81-9.43,9.68-14.18,14.49
			c-7.64,7.73-15.32,15.43-22.97,23.16c-3.6,3.63-7.13,7.32-10.73,10.96c-5.01,5.07-10.06,10.1-15.08,15.16
			c-4.75,4.79-9.5,9.59-14.24,14.4c-4.58,4.65-9.02,9.44-13.77,13.92c-3.43,3.24-9.02,4.81-13.89,2.45
			c-1.26-0.61-2.52-1.26-3.66-2.06c-2.22-1.55-3.12-3.91-3.53-6.47c-0.35-2.13-0.67-4.27-0.82-6.43c-0.27-3.79,0.6-7.4,2.17-10.84
			c0.27-0.59,0.71-1.13,1.18-1.59c4.96-4.94,9.93-9.86,14.9-14.78C419.47,371.87,421.54,369.85,423.75,367.73z"/>
		<path class="st3" d="M242.13,246.13c7.79,7.81,15.48,15.5,23.15,23.22c3.72,3.74,7.34,7.57,11.07,11.31
			c4.72,4.73,9.52,9.38,14.24,14.11c3.78,3.78,7.47,7.65,11.24,11.44c2.77,2.79,5.64,5.48,8.41,8.27
			c5.7,5.74,11.35,11.54,17.06,17.27c4.77,4.79,9.61,9.49,14.38,14.27c3.67,3.68,7.26,7.43,10.92,11.12
			c4.71,4.74,9.45,9.45,14.17,14.18c3.72,3.73,7.44,7.47,11.16,11.21c2.2,2.21,4.44,4.39,6.6,6.64c3.07,3.2,3.37,7.18,2.22,11.07
			c-1.56,5.27-5.05,9.26-10.03,11.69c-1.63,0.8-3.53,1.2-5.34,1.39c-0.88,0.09-2.07-0.5-2.74-1.16
			c-5.47-5.35-10.85-10.78-16.24-16.2c-5.81-5.84-11.59-11.72-17.42-17.54c-4.73-4.72-9.53-9.37-14.25-14.1
			c-4.67-4.67-9.27-9.42-13.93-14.09c-3.78-3.79-7.62-7.5-11.41-11.28c-3.67-3.67-7.28-7.41-10.95-11.08
			c-3.46-3.47-6.98-6.88-10.45-10.35c-3.94-3.93-7.84-7.91-11.77-11.85c-3.88-3.89-7.78-7.76-11.67-11.64
			c-5.2-5.19-10.4-10.38-15.59-15.58c-4.93-4.94-9.82-9.92-14.75-14.84c-5.83-5.82-11.71-11.6-17.55-17.42
			c-5.41-5.4-10.8-10.82-16.19-16.24c-0.52-0.52-0.98-1.1-1.57-1.77c2.26-3.48,5.12-6.18,8.63-8.25c4.78-2.82,9.94-3.4,15.31-2.7
			c1.76,0.23,3.55,0.63,5.18,1.3c1.11,0.46,2.05,1.44,2.93,2.32c6.15,6.19,12.25,12.42,18.39,18.61
			C237.52,241.67,239.78,243.83,242.13,246.13z"/>
		<path class="st4" d="M385.24,334.59c0.1,12.15,0.2,24.08,0.3,36.47c-0.74-0.55-1.27-0.86-1.68-1.28
			c-4.33-4.49-8.65-9.01-12.96-13.51c-4.62-4.82-9.21-9.68-13.88-14.44c-1.29-1.32-1.87-2.69-1.86-4.55c0.04-11.5,0-23-0.04-34.5
			c-0.1-25.31-0.23-50.62-0.34-75.92c-0.01-1.93,0.05-3.79,0.89-5.65c1.63-3.6,4.54-5.65,8-7.01c1.64-0.64,3.47-0.77,5.21-1.17
			c1.83-0.42,3.54,0.01,5.25,0.59c0.49,0.17,0.98,0.41,1.48,0.45c2.99,0.28,5.06,2.12,6.82,4.25c1.4,1.7,1.77,3.91,1.85,6.1
			c0.07,1.79,0.02,3.58,0.03,5.38c0.08,16.87,0.12,33.75,0.24,50.62c0.08,12.09,0.26,24.18,0.41,36.27
			C385.03,322.58,385.14,328.47,385.24,334.59z"/>
		<path class="st5" d="M405.87,367.02c-0.44,0.36-0.79,0.57-1.46,0.98c-0.06-1.12-0.14-1.9-0.14-2.68
			c-0.1-21.57-0.21-43.14-0.28-64.71c-0.08-23.81-0.09-47.62-0.19-71.43c-0.01-3.25,0.96-6.22,2.38-8.98
			c1.57-3.05,4.51-4.74,7.74-5.59c5.09-1.32,10.05-1.13,13.78,3.18c2.39,2.77,4.12,6.02,4.36,9.83c0.09,1.41,0.15,2.83,0.16,4.25
			c0.11,27.69,0.2,55.38,0.31,83.07c0.03,7.02,0.1,14.03,0.21,21.05c0.02,1.13-0.28,1.95-1.05,2.79
			c-5.57,6.07-11.08,12.2-16.64,18.29C412.05,360.37,409,363.61,405.87,367.02z"/>
	</g>
</g>
<g id="Colors">
</g>
</svg>
